<?xml version="1.0" ?><!DOCTYPE svg  PUBLIC '-//W3C//DTD SVG 1.1//EN'  'http://www.w3.org/Graphics/SVG/1.1/DTD/svg11.dtd'><svg enable-background="new 0 0 512 512" id="Layer_1" version="1.1" viewBox="0 0 512 512" xml:space="preserve" xmlns="http://www.w3.org/2000/svg" xmlns:xlink="http://www.w3.org/1999/xlink"><g><circle cx="256" cy="256" fill="#253B4B" r="244.5"/><g><polygon fill="#DBDBDB" points="354.9,360.6 163.4,354.2 210.3,272.3 210.3,170.8 302.1,170.8 302.1,272.3   "/><path d="M321.2,299.2c-19.7,15.1-34.7,24.8-50.3,33.5c-30.4,16.9-67.7,15.6-96.8-3.4c0,0,0,0,0,0l-54,94.7l5.6,5    h260.1l5-10.6L321.2,299.2z" fill="#F92140"/><g><path d="M394.9,428.8c-2.6,4.5-7.4,7.3-12.6,7.3H129.6c-5.2,0-10-2.8-12.6-7.3c-2.6-4.5-2.6-10.1,0-14.5     l85.9-148.7v-94.7c0.8,0.1,1.6,0.2,2.4,0.2h10.6V269l-87.6,151.7c-0.3,0.5-0.3,1.1,0,1.6c0.3,0.5,0.8,0.8,1.4,0.8h252.7     c0.6,0,1.1-0.3,1.4-0.8c0.3-0.5,0.3-1.1,0-1.6L296.2,269V171h10.6c0.8,0,1.6-0.1,2.4-0.2v94.7l85.9,148.7     C397.5,418.7,397.5,424.3,394.9,428.8z" fill="#DBDBDB"/></g><circle cx="198" cy="395" fill="#D61339" r="12.3"/><circle cx="296.3" cy="370.2" fill="#D61339" r="22"/><circle cx="251.6" cy="136" fill="#F92140" r="16.9"/><circle cx="302.1" cy="99.8" fill="#F92140" r="23.8"/><rect fill="#DBDBDB" height="12.1" width="34.3" x="181.6" y="170.8"/><rect fill="#DBDBDB" height="12.1" width="34.3" x="296.3" y="170.8"/></g></g></svg>